<svg xmlns="http://www.w3.org/2000/svg" viewBox="0 0 1200 500" role="img" aria-label="Pavlodar with a mosque on the bank of the Irtysh at dusk"><title>Pavlodar with a mosque on the bank of the Irtysh at dusk</title><defs><linearGradient id="sky" x1="0" y1="0" x2="0" y2="1"><stop offset="0" stop-color="#312e81"/><stop offset="0.5" stop-color="#be185d"/><stop offset="1" stop-color="#fdba74"/></linearGradient></defs><rect width="1200" height="500" fill="url(#sky)"/><circle cx="240" cy="300" r="120" fill="#fff7ed" fill-opacity="0.18"/><circle cx="240" cy="300" r="60" fill="#fff7ed" fill-opacity="0.9"/><rect x="0" y="350" width="1200" height="150" fill="#1e1b4b"/><rect x="0" y="350" width="1200" height="25" fill="#7c3aed" fill-opacity="0.5"/><rect x="0" y="330" width="1200" height="30" fill="#0f172a"/><rect x="470" y="270" width="260" height="70" fill="#0f172a"/><path d="M530 270 A70 70 0 0 1 670 270 Z" fill="#0f172a"/><rect x="598.5" y="182" width="3" height="18" fill="#0f172a"/><path d="M492 270 A28 28 0 0 1 548 270 Z" fill="#0f172a"/><rect x="518.5" y="224" width="3" height="18" fill="#0f172a"/><path d="M652 270 A28 28 0 0 1 708 270 Z" fill="#0f172a"/><rect x="678.5" y="224" width="3" height="18" fill="#0f172a"/><rect x="430" y="170" width="14" height="170" fill="#0f172a"/><polygon points="427 170 447 170 437.0 136" fill="#0f172a"/><rect x="756" y="170" width="14" height="170" fill="#0f172a"/><polygon points="753 170 773 170 763.0 136" fill="#0f172a"/><path d="M500 340 v-26 a10 10 0 0 1 20 0 v26 z" fill="#fde68a" fill-opacity="0.9"/><path d="M560 340 v-26 a10 10 0 0 1 20 0 v26 z" fill="#fde68a" fill-opacity="0.9"/><path d="M620 340 v-26 a10 10 0 0 1 20 0 v26 z" fill="#fde68a" fill-opacity="0.9"/><path d="M680 340 v-26 a10 10 0 0 1 20 0 v26 z" fill="#fde68a" fill-opacity="0.9"/><rect x="40" y="270" width="50" height="60" fill="#0f172a"/><rect x="100" y="240" width="40" height="90" fill="#0f172a"/><rect x="150" y="280" width="55" height="50" fill="#0f172a"/><rect x="900" y="250" width="50" height="80" fill="#0f172a"/><rect x="960" y="280" width="40" height="50" fill="#0f172a"/><rect x="1010" y="235" width="60" height="95" fill="#0f172a"/><rect x="1080" y="275" width="40" height="55" fill="#0f172a"/><rect x="560" y="375" width="80" height="6" fill="#fde68a" fill-opacity="0.35"/><rect x="570" y="392" width="60" height="5" fill="#fde68a" fill-opacity="0.25"/><path d="M60 430 q40 -8 80 0 t80 0 M820 450 q40 -8 80 0 t80 0" stroke="#c4b5fd" stroke-width="3" fill="none" stroke-opacity="0.6"/></svg>